<svg xmlns="http://www.w3.org/2000/svg" width="52" height="52" fill="none"><path fill="url(#a)" d="M14 4a2 2 0 1 1 0-4 2 2 0 0 1 0 4Z"/><path fill="url(#b)" d="M2 4a2 2 0 1 1 0-4 2 2 0 0 1 0 4Z"/><path fill="url(#c)" d="M38 16a2 2 0 1 1 0-4 2 2 0 0 1 0 4Z"/><path fill="url(#d)" d="M26 16a2 2 0 1 1 0-4 2 2 0 0 1 0 4Z"/><path fill="url(#e)" d="M14 16a2 2 0 1 1 0-4 2 2 0 0 1 0 4Z"/><path fill="url(#f)" d="M2 16a2 2 0 1 1 0-4 2 2 0 0 1 0 4Z"/><path fill="url(#g)" d="M38 28a2 2 0 1 1 0-4 2 2 0 0 1 0 4Z"/><path fill="url(#h)" d="M26 28a2 2 0 1 1 0-4 2 2 0 0 1 0 4Z"/><path fill="url(#i)" d="M14 28a2 2 0 1 1 0-4 2 2 0 0 1 0 4Z"/><path fill="url(#j)" d="M2 28a2 2 0 1 1 0-4 2 2 0 0 1 0 4Z"/><path fill="url(#k)" d="M50 40a2 2 0 1 1 0-4 2 2 0 0 1 0 4Z"/><path fill="url(#l)" d="M38 40a2 2 0 1 1 0-4 2 2 0 0 1 0 4Z"/><path fill="url(#m)" d="M26 40a2 2 0 1 1 0-4 2 2 0 0 1 0 4Z"/><path fill="url(#n)" d="M14 40a2 2 0 1 1 0-4 2 2 0 0 1 0 4Z"/><path fill="url(#o)" d="M2 40a2 2 0 1 1 0-4 2 2 0 0 1 0 4Z"/><path fill="url(#p)" d="M50 52a2 2 0 1 1 0-4 2 2 0 0 1 0 4Z"/><path fill="url(#q)" d="M38 52a2 2 0 1 1 0-4 2 2 0 0 1 0 4Z"/><path fill="url(#r)" d="M26 52a2 2 0 1 1 0-4 2 2 0 0 1 0 4Z"/><path fill="url(#s)" d="M14 52a2 2 0 1 1 0-4 2 2 0 0 1 0 4Z"/><path fill="url(#t)" d="M2 52a2 2 0 1 1 0-4 2 2 0 0 1 0 4Z"/><defs><linearGradient id="a" x1="52" x2="0" y1="26.118" y2="26.118" gradientUnits="userSpaceOnUse"><stop stop-color="#F4BC3E"/><stop offset="1" stop-color="#EA8C08"/></linearGradient><linearGradient id="b" x1="52" x2="0" y1="26.118" y2="26.118" gradientUnits="userSpaceOnUse"><stop stop-color="#F4BC3E"/><stop offset="1" stop-color="#EA8C08"/></linearGradient><linearGradient id="c" x1="52" x2="0" y1="26.118" y2="26.118" gradientUnits="userSpaceOnUse"><stop stop-color="#F4BC3E"/><stop offset="1" stop-color="#EA8C08"/></linearGradient><linearGradient id="d" x1="52" x2="0" y1="26.118" y2="26.118" gradientUnits="userSpaceOnUse"><stop stop-color="#F4BC3E"/><stop offset="1" stop-color="#EA8C08"/></linearGradient><linearGradient id="e" x1="52" x2="0" y1="26.118" y2="26.118" gradientUnits="userSpaceOnUse"><stop stop-color="#F4BC3E"/><stop offset="1" stop-color="#EA8C08"/></linearGradient><linearGradient id="f" x1="52" x2="0" y1="26.118" y2="26.118" gradientUnits="userSpaceOnUse"><stop stop-color="#F4BC3E"/><stop offset="1" stop-color="#EA8C08"/></linearGradient><linearGradient id="g" x1="52" x2="0" y1="26.118" y2="26.118" gradientUnits="userSpaceOnUse"><stop stop-color="#F4BC3E"/><stop offset="1" stop-color="#EA8C08"/></linearGradient><linearGradient id="h" x1="52" x2="0" y1="26.118" y2="26.118" gradientUnits="userSpaceOnUse"><stop stop-color="#F4BC3E"/><stop offset="1" stop-color="#EA8C08"/></linearGradient><linearGradient id="i" x1="52" x2="0" y1="26.118" y2="26.118" gradientUnits="userSpaceOnUse"><stop stop-color="#F4BC3E"/><stop offset="1" stop-color="#EA8C08"/></linearGradient><linearGradient id="j" x1="52" x2="0" y1="26.118" y2="26.118" gradientUnits="userSpaceOnUse"><stop stop-color="#F4BC3E"/><stop offset="1" stop-color="#EA8C08"/></linearGradient><linearGradient id="k" x1="52" x2="0" y1="26.118" y2="26.118" gradientUnits="userSpaceOnUse"><stop stop-color="#F4BC3E"/><stop offset="1" stop-color="#EA8C08"/></linearGradient><linearGradient id="l" x1="52" x2="0" y1="26.118" y2="26.118" gradientUnits="userSpaceOnUse"><stop stop-color="#F4BC3E"/><stop offset="1" stop-color="#EA8C08"/></linearGradient><linearGradient id="m" x1="52" x2="0" y1="26.118" y2="26.118" gradientUnits="userSpaceOnUse"><stop stop-color="#F4BC3E"/><stop offset="1" stop-color="#EA8C08"/></linearGradient><linearGradient id="n" x1="52" x2="0" y1="26.118" y2="26.118" gradientUnits="userSpaceOnUse"><stop stop-color="#F4BC3E"/><stop offset="1" stop-color="#EA8C08"/></linearGradient><linearGradient id="o" x1="52" x2="0" y1="26.118" y2="26.118" gradientUnits="userSpaceOnUse"><stop stop-color="#F4BC3E"/><stop offset="1" stop-color="#EA8C08"/></linearGradient><linearGradient id="p" x1="52" x2="0" y1="26.118" y2="26.118" gradientUnits="userSpaceOnUse"><stop stop-color="#F4BC3E"/><stop offset="1" stop-color="#EA8C08"/></linearGradient><linearGradient id="q" x1="52" x2="0" y1="26.118" y2="26.118" gradientUnits="userSpaceOnUse"><stop stop-color="#F4BC3E"/><stop offset="1" stop-color="#EA8C08"/></linearGradient><linearGradient id="r" x1="52" x2="0" y1="26.118" y2="26.118" gradientUnits="userSpaceOnUse"><stop stop-color="#F4BC3E"/><stop offset="1" stop-color="#EA8C08"/></linearGradient><linearGradient id="s" x1="52" x2="0" y1="26.118" y2="26.118" gradientUnits="userSpaceOnUse"><stop stop-color="#F4BC3E"/><stop offset="1" stop-color="#EA8C08"/></linearGradient><linearGradient id="t" x1="52" x2="0" y1="26.118" y2="26.118" gradientUnits="userSpaceOnUse"><stop stop-color="#F4BC3E"/><stop offset="1" stop-color="#EA8C08"/></linearGradient></defs></svg>