<svg xmlns="http://www.w3.org/2000/svg" width="32" height="32" fill="none"><path fill="url(#a)" d="M16 10.666A5.332 5.332 0 0 0 10.667 16 5.332 5.332 0 0 0 16 21.333 5.332 5.332 0 0 0 21.334 16 5.332 5.332 0 0 0 16 10.666Zm11.92 4A11.992 11.992 0 0 0 17.334 4.08V2.666c0-.733-.6-1.333-1.334-1.333-.733 0-1.333.6-1.333 1.333V4.08A11.992 11.992 0 0 0 4.081 14.666H2.667c-.733 0-1.333.6-1.333 1.334 0 .733.6 1.333 1.333 1.333h1.414A11.992 11.992 0 0 0 14.667 27.92v1.413c0 .733.6 1.333 1.333 1.333.734 0 1.334-.6 1.334-1.333V27.92A11.992 11.992 0 0 0 27.92 17.333h1.413c.733 0 1.333-.6 1.333-1.333 0-.734-.6-1.334-1.333-1.334H27.92ZM16 25.333A9.326 9.326 0 0 1 6.667 16 9.326 9.326 0 0 1 16 6.666 9.327 9.327 0 0 1 25.334 16 9.327 9.327 0 0 1 16 25.333Z"/><defs><linearGradient id="a" x1="16.067" x2="16.067" y1="1.333" y2="30.666" gradientUnits="userSpaceOnUse"><stop stop-color="#F4BC3E"/><stop offset="1" stop-color="#EA8C08"/></linearGradient></defs></svg>