<svg width="32" height="32" viewBox="0 0 32 32" fill="none" xmlns="http://www.w3.org/2000/svg">
<path d="M24.0003 10.6663H22.667V7.99967C22.667 4.31967 19.6803 1.33301 16.0003 1.33301C12.3203 1.33301 9.33362 4.31967 9.33362 7.99967V10.6663H8.00028C6.53362 10.6663 5.33362 11.8663 5.33362 13.333V26.6663C5.33362 28.133 6.53362 29.333 8.00028 29.333H24.0003C25.467 29.333 26.667 28.133 26.667 26.6663V13.333C26.667 11.8663 25.467 10.6663 24.0003 10.6663ZM16.0003 22.6663C14.5336 22.6663 13.3336 21.4663 13.3336 19.9997C13.3336 18.533 14.5336 17.333 16.0003 17.333C17.467 17.333 18.667 18.533 18.667 19.9997C18.667 21.4663 17.467 22.6663 16.0003 22.6663ZM12.0003 10.6663V7.99967C12.0003 5.78634 13.787 3.99967 16.0003 3.99967C18.2136 3.99967 20.0003 5.78634 20.0003 7.99967V10.6663H12.0003Z" fill="url(#paint0_linear_52_1061)"/>
<defs>
<linearGradient id="paint0_linear_52_1061" x1="16.0486" y1="1.33301" x2="16.0486" y2="29.333" gradientUnits="userSpaceOnUse">
<stop stop-color="#F4BC3E"/>
<stop offset="1" stop-color="#EA8C08"/>
</linearGradient>
</defs>
</svg>
